<svg width="54" height="54" viewBox="0 0 54 54" version="1.1" xmlns="http://www.w3.org/2000/svg" xmlns:xlink="http://www.w3.org/1999/xlink" xmlns:figma="http://www.figma.com/figma/ns">
<title>btn_more</title>
<desc>Created using Figma</desc>
<g id="Canvas" transform="translate(147 32)" figma:type="canvas">
<mask id="mask0_alpha" mask-type="alpha">
<path d="M -147 -32L -93 -32L -93 22L -147 22L -147 -32Z" fill="#FFFFFF"/>
</mask>
<g id="btn_more" mask="url(#mask0_alpha)" figma:type="frame">
<g id="Vector 2" figma:type="vector">
<use xlink:href="#path0_stroke" transform="translate(-120 -16.1176)" fill="#FFFFFF"/>
</g>
<g id="Vector 2" figma:type="vector">
<use xlink:href="#path0_stroke" transform="matrix(6.12323e-17 1 -1 6.12323e-17 -108.882 -5)" fill="#FFFFFF"/>
</g>
</g>
</g>
<defs>
<path id="path0_stroke" d="M 0.75 0C 0.75 -0.414214 0.414214 -0.75 0 -0.75C -0.414214 -0.75 -0.75 -0.414214 -0.75 0L 0.75 0ZM -0.75 22.2353C -0.75 22.6495 -0.414214 22.9853 0 22.9853C 0.414214 22.9853 0.75 22.6495 0.75 22.2353L -0.75 22.2353ZM -0.75 0L -0.75 22.2353L 0.75 22.2353L 0.75 0L -0.75 0Z"/>
</defs>
</svg>
