<svg width="108" height="108" viewBox="0 0 108 108" version="1.1" xmlns="http://www.w3.org/2000/svg" xmlns:xlink="http://www.w3.org/1999/xlink">
<title>cancel_btn</title>
<desc>Created using Figma</desc>
<g id="Canvas" transform="matrix(2 0 0 2 3842 996)">
<clipPath id="clip-0" clip-rule="evenodd">
<path d="M -1921 -498L -1867 -498L -1867 -444L -1921 -444L -1921 -498Z" fill="#FFFFFF"/>
</clipPath>
<g id="cancel_btn" clip-path="url(#clip-0)">
<g id="Group">
<g id="Vector 6">
<use xlink:href="#path0_stroke" transform="translate(-1901 -478)" fill="#FFFFFF"/>
</g>
<g id="Vector 6">
<use xlink:href="#path1_stroke" transform="translate(-1901 -478)" fill="#FFFFFF"/>
</g>
</g>
</g>
</g>
<defs>
<path id="path0_stroke" d="M -0.707107 13.2929C -1.09763 13.6834 -1.09763 14.3166 -0.707107 14.7071C -0.316583 15.0976 0.316583 15.0976 0.707107 14.7071L -0.707107 13.2929ZM 14.7071 0.707107C 15.0976 0.316583 15.0976 -0.316583 14.7071 -0.707107C 14.3166 -1.09763 13.6834 -1.09763 13.2929 -0.707107L 14.7071 0.707107ZM 0.707107 14.7071L 14.7071 0.707107L 13.2929 -0.707107L -0.707107 13.2929L 0.707107 14.7071Z"/>
<path id="path1_stroke" d="M 0.707107 -0.707107C 0.316583 -1.09763 -0.316583 -1.09763 -0.707107 -0.707107C -1.09763 -0.316583 -1.09763 0.316583 -0.707107 0.707107L 0.707107 -0.707107ZM 13.2929 14.7071C 13.6834 15.0976 14.3166 15.0976 14.7071 14.7071C 15.0976 14.3166 15.0976 13.6834 14.7071 13.2929L 13.2929 14.7071ZM -0.707107 0.707107L 13.2929 14.7071L 14.7071 13.2929L 0.707107 -0.707107L -0.707107 0.707107Z"/>
</defs>
</svg>
