<svg width="54" height="54" viewBox="0 0 54 54" version="1.1" xmlns="http://www.w3.org/2000/svg" xmlns:xlink="http://www.w3.org/1999/xlink" xmlns:figma="http://www.figma.com/figma/ns">
<title>btn_up</title>
<desc>Created using Figma</desc>
<g id="Canvas" transform="translate(389 32)" figma:type="canvas">
<mask id="mask0_alpha" mask-type="alpha">
<path d="M -389 -32L -335 -32L -335 22L -389 22L -389 -32Z" fill="#FFFFFF"/>
</mask>
<g id="btn_up" mask="url(#mask0_alpha)" figma:type="frame">
<g id="icon_back" figma:type="vector">
<use xlink:href="#path0_stroke" transform="matrix(6.12323e-17 1 -1 6.12323e-17 -352.471 -16.1176)" fill="#FFFFFF"/>
</g>
<g id="Vector 3" figma:type="vector">
<use xlink:href="#path1_stroke" transform="translate(-362 -16.1176)" fill="#FFFFFF"/>
</g>
</g>
</g>
<defs>
<path id="path0_stroke" d="M 10.0597 0.53033C 10.3526 0.237437 10.3526 -0.237437 10.0597 -0.53033C 9.76685 -0.823223 9.29197 -0.823223 8.99908 -0.53033L 10.0597 0.53033ZM 0 9.52941L -0.53033 8.99908C -0.823223 9.29197 -0.823223 9.76685 -0.53033 10.0597L 0 9.52941ZM 8.99908 19.5892C 9.29197 19.882 9.76685 19.882 10.0597 19.5892C 10.3526 19.2963 10.3526 18.8214 10.0597 18.5285L 8.99908 19.5892ZM 8.99908 -0.53033L -0.53033 8.99908L 0.53033 10.0597L 10.0597 0.53033L 8.99908 -0.53033ZM -0.53033 10.0597L 8.99908 19.5892L 10.0597 18.5285L 0.53033 8.99908L -0.53033 10.0597Z"/>
<path id="path1_stroke" d="M 0.75 0C 0.75 -0.414214 0.414214 -0.75 0 -0.75C -0.414214 -0.75 -0.75 -0.414214 -0.75 0L 0.75 0ZM -0.75 23.8235C -0.75 24.2377 -0.414214 24.5735 0 24.5735C 0.414214 24.5735 0.75 24.2377 0.75 23.8235L -0.75 23.8235ZM -0.75 0L -0.75 23.8235L 0.75 23.8235L 0.75 0L -0.75 0Z"/>
</defs>
</svg>
