<svg width="108" height="108" viewBox="0 0 108 108" version="1.1" xmlns="http://www.w3.org/2000/svg" xmlns:xlink="http://www.w3.org/1999/xlink">
<title>menu_btn</title>
<desc>Created using Figma</desc>
<g id="Canvas" transform="matrix(2 0 0 2 5480 874)">
<clipPath id="clip-0" clip-rule="evenodd">
<path d="M -2740 -437L -2686 -437L -2686 -383L -2740 -383L -2740 -437Z" fill="#FFFFFF"/>
</clipPath>
<g id="menu_btn" clip-path="url(#clip-0)">
<g id="Group">
<g id="Vector 6">
<use xlink:href="#path0_stroke" transform="translate(-2720 -405)" fill="#FFFFFF"/>
</g>
<g id="Vector 6">
<use xlink:href="#path0_stroke" transform="translate(-2720 -410)" fill="#FFFFFF"/>
</g>
<g id="Vector 6">
<use xlink:href="#path0_stroke" transform="translate(-2720 -415)" fill="#FFFFFF"/>
</g>
</g>
</g>
</g>
<defs>
<path id="path0_stroke" d="M 0 -1C -0.552285 -1 -1 -0.552285 -1 0C -1 0.552285 -0.552285 1 0 1L 0 -1ZM 14 1C 14.5523 1 15 0.552285 15 0C 15 -0.552285 14.5523 -1 14 -1L 14 1ZM 0 1L 14 1L 14 -1L 0 -1L 0 1Z"/>
</defs>
</svg>
