<svg width="108" height="108" viewBox="0 0 108 108" version="1.1" xmlns="http://www.w3.org/2000/svg" xmlns:xlink="http://www.w3.org/1999/xlink" xmlns:figma="http://www.figma.com/figma/ns">
<title>menu_btn</title>
<desc>Created using Figma</desc>
<g id="Canvas" transform="matrix(2 0 0 2 -450 996)" figma:type="canvas">
<g id="menu_btn" figma:type="frame">
<g id="Ellipse" figma:type="ellipse">
<use xlink:href="#path0_fill" transform="translate(225 -498)" fill="#3131DA"/>
</g>
<g id="Group" figma:type="frame">
<g id="Vector 6" figma:type="vector">
<use xlink:href="#path1_stroke" transform="translate(245 -466)" fill="#FFFFFF"/>
</g>
<g id="Vector 6" figma:type="vector">
<use xlink:href="#path1_stroke" transform="translate(245 -471)" fill="#FFFFFF"/>
</g>
<g id="Vector 6" figma:type="vector">
<use xlink:href="#path1_stroke" transform="translate(245 -476)" fill="#FFFFFF"/>
</g>
</g>
</g>
</g>
<defs>
<path id="path0_fill" d="M 54 27C 54 41.9117 41.9117 54 27 54C 12.0883 54 0 41.9117 0 27C 0 12.0883 12.0883 0 27 0C 41.9117 0 54 12.0883 54 27Z"/>
<path id="path1_stroke" d="M 0 -1C -0.552285 -1 -1 -0.552285 -1 0C -1 0.552285 -0.552285 1 0 1L 0 -1ZM 14 1C 14.5523 1 15 0.552285 15 0C 15 -0.552285 14.5523 -1 14 -1L 14 1ZM 0 1L 14 1L 14 -1L 0 -1L 0 1Z"/>
</defs>
</svg>
